<svg width="18" height="18" viewBox="0 0 18 18" fill="none" xmlns="http://www.w3.org/2000/svg">
  <rect x="2" y="4" width="10" height="10" rx="2" fill="#4F7DFF"/>
  <rect x="6" y="2.5" width="10" height="10" rx="2" fill="#20C997"/>
  <rect x="7.6" y="4.1" width="2.4" height="2.4" rx="0.5" fill="#FFFFFF" fill-opacity="0.92"/>
  <rect x="11" y="4.1" width="3.2" height="2.4" rx="0.5" fill="#FFFFFF" fill-opacity="0.72"/>
  <rect x="7.6" y="7.5" width="6.6" height="2.7" rx="0.6" fill="#FFFFFF" fill-opacity="0.82"/>
  <path d="M3.4 7.8C3.4 6.7 4.3 5.8 5.4 5.8H12.6C13.7 5.8 14.6 6.7 14.6 7.8V13.6C14.6 14.7 13.7 15.6 12.6 15.6H5.4C4.3 15.6 3.4 14.7 3.4 13.6V7.8Z" fill="#FFB020"/>
  <rect x="5.1" y="9.2" width="2.1" height="2.1" rx="0.45" fill="#FFFFFF" fill-opacity="0.95"/>
  <rect x="8.1" y="9.2" width="4.8" height="2.1" rx="0.45" fill="#FFFFFF" fill-opacity="0.8"/>
  <rect x="5.1" y="12.2" width="7.8" height="1.7" rx="0.45" fill="#FFFFFF" fill-opacity="0.72"/>
</svg>
